<?xml version="1.0" encoding="utf-8"?>
<!-- Generator: Adobe Illustrator 27.1.0, SVG Export Plug-In . SVG Version: 6.00 Build 0)  -->
<svg version="1.1"
	 id="svg1284" xmlns:serif="http://www.serif.com/" xmlns:sodipodi="http://sodipodi.sourceforge.net/DTD/sodipodi-0.dtd" xmlns:svg="http://www.w3.org/2000/svg" xmlns:inkscape="http://www.inkscape.org/namespaces/inkscape"
	 xmlns="http://www.w3.org/2000/svg" xmlns:xlink="http://www.w3.org/1999/xlink" x="0px" y="0px" viewBox="0 0 189.3 190"
	 style="enable-background:new 0 0 189.3 190;" xml:space="preserve">
<style type="text/css">
	.st0{fill-rule:evenodd;clip-rule:evenodd;fill:#FFD101;}
	.st1{fill:#005EB8;}
</style>
<g id="_3DCoat-Black" transform="matrix(1.33888,0,0,1.33888,-278.609,-262.737)" serif:id="3DCoat Black">
	<ellipse id="path210" class="st0" cx="278.9" cy="267" rx="69.3" ry="67.8"/>
	<path id="path1281" class="st1" d="M278.7,331.7c-34.5-0.1-63.5-27.1-64.6-61.5c-0.1-3.7,1.6-5.9,3.9-6.4c3.2-0.7,5.3,0.9,6.4,3.7
		c1.2,3.2,2.3,5.7,5.1,5.5c0.9-0.1,1.5-0.3,2-0.7c1.3-1.1,1.4-3.3,1.6-4.9c0.7-6.1,3.4-11.6,10.9-11.8c7.7-0.2,11.4,5.3,12.2,14.9
		c0.4,4.6,0.1,15.5-0.1,21.7c-0.1,2-0.5,5.7-0.4,7.1c0.3,3.8,2.4,5.1,4.4,5c2.5-0.1,4-2.2,4.1-4.6c0.1-2.3-0.4-5.3-0.8-7.7
		c-0.7-4-1.4-9.4-1.7-14.4c-0.5-7.9-0.9-13.8,1.1-20.9c1.9-6.9,7-11.3,14.1-11.2c14.6,0.2,17.1,19,15.3,29.7
		c-0.4,2.3-0.6,4.9,1.3,6.4c1,0.8,3.8,1,4.9-1.8c1.1-3-0.9-7.9-0.2-13.5c0.7-5.4,7.9-5.1,9.5,0.4c1.5,5.2,1.4,11.3,0.8,16.4
		c-0.4,3.1-1.4,7.3,1.8,9.2c1.1,0.6,2.1,0.7,3,0.3c1.3-0.7,1.5-2.8,1.5-3.9c0.3-5.5-1.1-12.1-1-17.8c0.2-8.4,2.7-15.8,10.8-16.1
		c7.9-0.3,9.6,6.2,10.1,10.4c0.5,3.9,0.6,5.6,2.2,5.8c3.9,0.3,0.9-7.2,4.6-7.1c1.6,0,1.9,1.8,1.9,3.3
		C343.4,302.6,314.5,331.6,278.7,331.7L278.7,331.7z M313.2,205.2c-10.5-5.9-22.4-9-34.5-9c-17.6,0-34.6,6.6-47.6,18.6
		c-5.7,5-10.5,11-14.1,17.7c-19,34.1-6.8,77.2,27.3,96.2s77.2,6.8,96.2-27.3C359.5,267.3,347.3,224.2,313.2,205.2L313.2,205.2z"/>
</g>
</svg>
