<?xml version="1.0" encoding="utf-8"?>
<!-- Generator: Adobe Illustrator 27.1.0, SVG Export Plug-In . SVG Version: 6.00 Build 0)  -->
<svg version="1.1"
	 id="svg13979" xmlns:svg="http://www.w3.org/2000/svg" xmlns:sodipodi="http://sodipodi.sourceforge.net/DTD/sodipodi-0.dtd" xmlns:inkscape="http://www.inkscape.org/namespaces/inkscape" inkscape:export-filename="C_Sharp_Logo_202311.png"
	 xmlns="http://www.w3.org/2000/svg" xmlns:xlink="http://www.w3.org/1999/xlink" x="0px" y="0px" viewBox="0 0 448 497.5"
	 style="enable-background:new 0 0 448 497.5;" xml:space="preserve">
<style type="text/css">
	.st0{fill:url(#path8_00000046304609198191070220000015310673560211344831_);}
	.st1{fill:#FFFFFF;}
</style>
<sodipodi:namedview  bordercolor="#000000" borderopacity="0.25" id="namedview13981" inkscape:current-layer="layer1" inkscape:cx="279.68205" inkscape:cy="218.67149" inkscape:deskcolor="#d1d1d1" inkscape:document-units="mm" inkscape:pagecheckerboard="0" inkscape:pageopacity="0.0" inkscape:showpageshadow="2" inkscape:window-height="837" inkscape:window-maximized="1" inkscape:window-width="1600" inkscape:window-x="-8" inkscape:window-y="-8" inkscape:zoom="0.82772564" pagecolor="#ffffff" showgrid="false">
	</sodipodi:namedview>
<g id="layer1" transform="translate(-60.060409,-36.756274)" inkscape:groupmode="layer" inkscape:label="Calque 1">
	<g id="g16308" transform="matrix(0.28105395,0,0,0.28105395,-15.230231,4.5884391)">
		
			<linearGradient id="path8_00000139257226900638307220000001035662219879304339_" gradientUnits="userSpaceOnUse" x1="-723.3867" y1="2086.8875" x2="-663.2068" y2="1982.1298" gradientTransform="matrix(3.5892 0 0 -3.5892 3287.2378 7838.7012)">
			<stop  offset="0" style="stop-color:#927BE5"/>
			<stop  offset="1" style="stop-color:#512BD4"/>
		</linearGradient>
		<path id="path8" style="fill:url(#path8_00000139257226900638307220000001035662219879304339_);" d="M267.9,670.8v657.3
			c0,81.3,43.4,156.5,113.9,197.2L951,1854.1c70.5,40.7,157.2,40.7,227.7,0l569.3-328.7c70.5-40.7,113.9-115.9,113.9-197.2V670.8
			c0-81.4-43.4-156.6-113.9-197.2L1178.7,145c-70.5-40.7-157.2-40.7-227.7,0L381.7,473.6C311.3,514.3,267.9,589.5,267.9,670.8
			L267.9,670.8z"/>
		<path id="path12" class="st1" d="M666.4,885.7v227.7c0,15.1,6,29.6,16.7,40.2c10.7,10.7,25.2,16.7,40.2,16.7
			c15.1,0,29.6-6,40.2-16.7c10.7-10.7,16.7-25.2,16.7-40.2c0-15.1,6-29.6,16.7-40.3c10.7-10.7,25.2-16.7,40.2-16.7
			c15.1,0,29.6,6,40.2,16.7c10.7,10.7,16.7,25.2,16.7,40.3c0,45.3-18,88.7-50,120.7c-32.1,32-75.5,50-120.7,50
			c-45.3,0-88.8-18-120.7-50c-32.1-32.1-50-75.5-50-120.7V885.7c0-45.3,18-88.8,50-120.7c32.1-32,75.5-50,120.7-50
			c45.3,0,88.8,18,120.7,50c32,32.1,50,75.5,50,120.7c0,15.1-6,29.6-16.7,40.2c-10.7,10.7-25.2,16.7-40.2,16.7
			c-15.1,0-29.6-6-40.2-16.7c-10.7-10.7-16.7-25.2-16.7-40.2c0-15.1-6-29.6-16.7-40.3c-10.7-10.7-25.2-16.7-40.2-16.7
			c-15.1,0-29.6,6-40.2,16.7C672.4,856.2,666.4,870.6,666.4,885.7z M1577.2,1113.4c0,15.1-6,29.6-16.7,40.2
			c-10.7,10.7-25.2,16.7-40.3,16.7h-56.9v56.9c0,15.1-6,29.6-16.7,40.3c-10.7,10.6-25.2,16.7-40.2,16.7c-15.1,0-29.6-6-40.3-16.7
			c-10.6-10.7-16.7-25.2-16.7-40.3v-56.9h-113.9v56.9c0,15.1-6,29.6-16.7,40.3c-10.7,10.6-25.2,16.7-40.2,16.7
			c-15.1,0-29.6-6-40.3-16.7c-10.7-10.7-16.7-25.2-16.7-40.3v-56.9h-56.9c-15.1,0-29.6-6-40.2-16.7c-10.7-10.7-16.7-25.2-16.7-40.2
			c0-15.1,6-29.6,16.7-40.3c10.7-10.7,25.2-16.7,40.2-16.7h56.9V942.6h-56.9c-15.1,0-29.6-6-40.2-16.7
			c-10.7-10.7-16.7-25.2-16.7-40.2c0-15.1,6-29.6,16.7-40.3c10.7-10.7,25.2-16.7,40.2-16.7h56.9v-56.9c0-15.1,6-29.6,16.7-40.2
			c10.7-10.7,25.2-16.7,40.3-16.7c15.1,0,29.6,6,40.2,16.7c10.7,10.7,16.7,25.2,16.7,40.2v56.9h113.9v-56.9c0-15.1,6-29.6,16.7-40.2
			c10.7-10.7,25.2-16.7,40.3-16.7c15.1,0,29.6,6,40.2,16.7c10.6,10.7,16.7,25.2,16.7,40.2v56.9h56.9c15.1,0,29.6,6,40.3,16.7
			c10.6,10.7,16.7,25.2,16.7,40.3c0,15.1-6,29.6-16.7,40.2c-10.7,10.7-25.2,16.7-40.3,16.7h-56.9v113.9h56.9
			c15.1,0,29.6,6,40.3,16.7C1571.2,1083.9,1577.2,1098.3,1577.2,1113.4z M1349.5,942.6h-113.9v113.9h113.9V942.6z"/>
	</g>
</g>
</svg>
