<?xml version="1.0" encoding="utf-8"?>
<!-- Generator: Adobe Illustrator 27.1.0, SVG Export Plug-In . SVG Version: 6.00 Build 0)  -->
<svg version="1.1" id="Layer_1" xmlns="http://www.w3.org/2000/svg" xmlns:xlink="http://www.w3.org/1999/xlink" x="0px" y="0px"
	 viewBox="0 0 240 234" style="enable-background:new 0 0 240 234;" xml:space="preserve">
<style type="text/css">
	.st0{fill:#49021F;}
	.st1{fill:#FF3366;}
</style>
<g transform="matrix(1.00000012 0 0 1.00000012 151.999998 78.999995)">
	<path class="st0" d="M-109.5-79h155C69-79,88-60,88-36.5v149C88,136,69,155,45.5,155h-155c-23.5,0-42.5-19-42.5-42.5v-149
		C-152-60-133-79-109.5-79z"/>
	<g>
		<path class="st1" d="M-64.8-17.8V84.8c0,1.1-0.5,1.6-1.4,1.6h-19.6c-0.9,0-1.3-0.5-1.3-1.6V-17.8c0-0.9,0.5-1.3,1.4-1.3h19.5
			c0.6-0.1,1.2,0.3,1.3,1C-64.8-18-64.8-17.9-64.8-17.8z"/>
		<path class="st1" d="M-7.2,88c-7.4,0.1-14.8-1.4-21.5-4.5c-6.3-2.9-11.5-7.7-15.1-13.6c-3.7-6.1-5.5-13.7-5.5-22.8
			c-0.1-7.4,1.8-14.7,5.5-21.1c3.8-6.5,9.3-11.9,15.9-15.5c7-3.9,15.4-5.8,25.3-5.8c0.5,0,1.2,0,2.1,0.1S1.4,4.9,2.6,5v-31.6
			c0-0.7,0.3-1.1,1-1.1h20.3c0.5-0.1,0.9,0.3,1,0.7v95.4c0,1.8,0.1,3.8,0.2,6c0.2,2.1,0.3,4.1,0.4,5.8c0,0.7-0.3,1.3-1,1.6
			c-5.2,2.2-10.7,3.8-16.3,4.8C3.2,87.5-2,88-7.2,88L-7.2,88z M2.6,68V24c-0.9-0.2-1.8-0.4-2.7-0.5c-1.1-0.1-2.2-0.2-3.3-0.2
			c-3.9,0-7.8,0.8-11.3,2.6c-3.4,1.7-6.3,4.2-8.5,7.4s-3.3,7.5-3.3,12.7c-0.1,3.5,0.5,7,1.7,10.3c1,2.7,2.5,5.1,4.5,7.1
			c1.9,1.8,4.2,3.2,6.8,4c2.7,0.9,5.5,1.3,8.3,1.3c1.5,0,2.9-0.1,4.2-0.2C0.3,68.6,1.5,68.4,2.6,68L2.6,68z"/>
	</g>
</g>
</svg>
