<?xml version="1.0" encoding="utf-8"?>
<!-- Generator: Adobe Illustrator 27.1.0, SVG Export Plug-In . SVG Version: 6.00 Build 0)  -->
<svg version="1.1" id="Layer_1" xmlns="http://www.w3.org/2000/svg" xmlns:xlink="http://www.w3.org/1999/xlink" x="0px" y="0px"
	 viewBox="0 0 422.01 448.04" style="enable-background:new 0 0 422.01 448.04;" xml:space="preserve">
<style type="text/css">
	.st0{fill:#FFFFFF;}
	.st1{fill:#7FC5DE;}
	.st2{fill:#39A5CC;}
	.st3{fill:#36687F;}
</style>
<path class="st0" d="M139.33,70.24c18.3,0,36.58,0.18,54.85-0.12c12.13,46.75,23.59,93.69,35.42,140.5
	c12.22-46.87,24.38-93.78,37.22-140.5c17.45,0.27,34.93,0.18,52.37,0.06c0.34,58.33,0.18,116.69,0.06,175.02
	c-13.72-0.24-27.44-0.09-41.19-0.15c-0.09-37.58,0.06-75.14-0.03-112.69c-9.6,37.58-19.1,75.26-29.3,112.69
	c-13.75-0.15-27.53,0.43-41.28-0.37c-9.84-39.05-20.32-77.95-30.68-116.88c0.49,39.05,0.21,78.13,0.21,117.18
	c-12.59,0.12-25.15,0.12-37.71,0C139.46,186.75,139.3,128.48,139.33,70.24"/>
<path class="st0" d="M164.27,345.7c7.36,0.06,14.73,0.09,22.12,0.12c6.63,22.12,13.35,44.21,19.92,66.34
	c-5.71-0.03-11.4-0.09-17.11-0.27c-1.22-4.71-2.48-9.41-3.73-14.12c-6.66-0.09-13.29-0.09-19.95,0.06
	c-1.19,4.77-2.38,9.53-3.58,14.3h-16.71C151.74,390.04,157.94,367.85,164.27,345.7 M175.24,358.14c-2.38,8.98-4.58,18-6.39,27.1
	h13.11C179.94,376.16,177.77,367.09,175.24,358.14"/>
<path class="st0" d="M199.9,345.82c5.87-0.03,11.73-0.03,17.6,0c4.1,9.23,7.85,18.58,12.16,27.71c3.97-9.2,7.91-18.4,11.8-27.65
	c5.78-0.09,11.58-0.12,17.39-0.12c-6.42,10.91-11.86,22.37-17.85,33.52c-6.23,9.78-2.38,21.88-3.42,32.79
	c-5.53,0-11.09,0.03-16.62,0.03c-0.3-8.95,0.79-18.03-0.61-26.92C213.92,371.89,206.8,358.9,199.9,345.82"/>
<path class="st0" d="M271.46,345.85c7.39-0.06,14.79-0.09,22.21-0.15c6.66,22.15,13.11,44.34,20.01,66.4
	c-5.8,0.09-11.58,0.06-17.36-0.37c-1.13-4.71-2.35-9.38-3.79-13.96c-6.63-0.15-13.23-0.15-19.83,0.28
	c-1.13,4.7-2.35,9.41-3.58,14.12c-5.53-0.03-11.09-0.06-16.62-0.06C258.93,390.04,265.29,367.98,271.46,345.85 M282.61,356.98
	c-2.38,9.32-4.37,18.73-6.85,28.02c4.52,0.09,9.07,0.21,13.6,0.33C286.83,375.95,284.87,366.42,282.61,356.98"/>
<path class="st1" d="M0,41.12c22.52-13.9,45.22-27.47,67.96-41.07c0.37,105.02-0.21,210.01,0.27,315.03
	c-10.57,5.74-20.66,12.35-31.01,18.49c-12.44,7.36-24.69,15.09-37.19,22.34C-0.03,250.98,0.03,146.05,0,41.12"/>
<path class="st2" d="M67.95,0.05c100.1-0.09,200.2-0.03,300.3-0.03c11.24-0.27,22.15,9.23,22.46,20.69
	c0.55,16.35-0.06,32.72,0.18,49.07c0.37,81.65,0.21,163.29,0.09,244.94c-107.59,0.55-215.18-0.24-322.76,0.37
	C67.74,210.06,68.32,105.07,67.95,0.05 M139.33,70.24c-0.03,58.24,0.12,116.51-0.06,174.75c12.56,0.12,25.12,0.12,37.71,0
	c0-39.05,0.27-78.13-0.21-117.18c10.36,38.93,20.84,77.83,30.68,116.88c13.75,0.79,27.53,0.21,41.28,0.37
	c10.2-37.43,19.71-75.11,29.3-112.69c0.09,37.55-0.06,75.11,0.03,112.69c13.75,0.06,27.47-0.09,41.19,0.15
	c0.12-58.33,0.27-116.69-0.06-175.02c-17.45,0.12-34.93,0.21-52.37-0.06c-12.83,46.72-24.99,93.62-37.22,140.5
	c-11.83-46.81-23.28-93.75-35.42-140.5C175.91,70.42,157.64,70.24,139.33,70.24"/>
<path class="st3" d="M390.9,69.78c10.36,0,20.72,0,31.08,0.06c0.03,126.1,0,252.21,0.03,378.28
	c-120.97-0.28-241.91,0.09-362.85-0.18c-12.25-0.18-23.31-11.46-21.97-23.92c0-30.13,0-60.29,0.03-90.45
	c10.36-6.14,20.44-12.74,31.01-18.49c107.59-0.61,215.18,0.18,322.76-0.37C391.12,233.07,391.27,151.43,390.9,69.78 M164.27,345.7
	c-6.33,22.15-12.53,44.34-19.04,66.43h16.71c1.19-4.77,2.38-9.53,3.57-14.3c6.66-0.15,13.29-0.15,19.95-0.06
	c1.25,4.71,2.51,9.41,3.73,14.12c5.71,0.18,11.4,0.24,17.11,0.27c-6.57-22.12-13.29-44.21-19.92-66.34
	C179,345.79,171.63,345.76,164.27,345.7 M199.9,345.82c6.9,13.08,14.02,26.06,20.44,39.36c1.4,8.89,0.31,17.97,0.61,26.92
	c5.53,0,11.09-0.03,16.62-0.03c1.04-10.91-2.81-23.01,3.42-32.79c5.99-11.15,11.43-22.61,17.85-33.52c-5.81,0-11.61,0.03-17.39,0.12
	c-3.88,9.26-7.82,18.46-11.8,27.65c-4.31-9.14-8.07-18.49-12.16-27.71C211.63,345.79,205.76,345.79,199.9,345.82 M271.46,345.85
	c-6.17,22.12-12.53,44.19-18.94,66.25c5.53,0,11.09,0.03,16.62,0.06c1.22-4.7,2.44-9.41,3.58-14.12c6.6-0.43,13.2-0.43,19.83-0.27
	c1.44,4.58,2.66,9.26,3.79,13.96c5.77,0.43,11.55,0.46,17.36,0.37c-6.91-22.06-13.35-44.24-20.01-66.4
	C286.25,345.76,278.85,345.79,271.46,345.85"/>
<path class="st3" d="M175.24,358.14c2.54,8.95,4.71,18.03,6.72,27.1h-13.11C170.65,376.13,172.85,367.12,175.24,358.14"/>
<path class="st3" d="M282.61,356.98c2.26,9.44,4.22,18.98,6.75,28.36c-4.52-0.12-9.08-0.24-13.6-0.33
	C278.24,375.71,280.23,366.3,282.61,356.98"/>
</svg>
