<?xml version="1.0" encoding="utf-8"?>
<!-- Generator: Adobe Illustrator 27.1.0, SVG Export Plug-In . SVG Version: 6.00 Build 0)  -->
<svg version="1.1" id="Layer_1" xmlns="http://www.w3.org/2000/svg" xmlns:xlink="http://www.w3.org/1999/xlink" x="0px" y="0px"
	 viewBox="0 0 800 800" style="enable-background:new 0 0 800 800;" xml:space="preserve">
<style type="text/css">
	.st0{fill:none;stroke:#000000;stroke-width:21.9178;stroke-miterlimit:43.8356;}
</style>
<g id="databases-and-servers_x2F_servers_x2F_ssh">
	<g id="container" transform="translate(2.000000, 2.000000)">
		<path id="mask" class="st0" d="M162.4,9h471.2C718.4,9,787,77.6,787,162.4v471.2c0,84.7-68.7,153.4-153.4,153.4H162.4
			C77.6,787,9,718.4,9,633.6V162.4C9,77.6,77.6,9,162.4,9z"/>
	</g>
	<g id="terminal" transform="translate(11.000000, 17.000000)">
		<path id="Shape" d="M649.2,169.5H127.7c-10,0-18.2,8.1-18.2,18.2v90.6h557.8v-90.6C667.4,177.7,659.2,169.5,649.2,169.5z
			 M460.7,248.2c-13.4,0-24.3-10.9-24.3-24.3c0-13.4,10.9-24.3,24.3-24.3c13.4,0,24.3,10.9,24.3,24.3
			C484.9,237.3,474,248.2,460.7,248.2z M526.7,248.2c-13.4,0-24.3-10.9-24.3-24.3c0-13.4,10.9-24.3,24.3-24.3
			c13.4,0,24.3,10.9,24.3,24.3C551,237.3,540.1,248.2,526.7,248.2z M592.8,248.2c-13.4,0-24.3-10.9-24.3-24.3
			c0-13.4,10.9-24.3,24.3-24.3c13.4,0,24.3,10.9,24.3,24.3C617.1,237.3,606.2,248.2,592.8,248.2z"/>
		<path id="Shape_00000102528570461352947360000015752475794976985789_" d="M109.5,314.7v261.1c0,10,8.1,18.2,18.2,18.2h521.4
			c10,0,18.2-8.1,18.2-18.2V314.7H109.5z M366.1,468.2l-59.5,50.7c-7.7,6.5-19.1,5.6-25.6-2.1c-6.5-7.7-5.6-19.1,2.1-25.6l43.3-36.8
			l-43.3-36.8c-7.7-6.5-8.6-18-2.1-25.6c6.5-7.7,18-8.6,25.6-2.1l59.5,50.7C374.6,447.7,374.6,460.9,366.1,468.2z M482.2,523.2
			h-71.9c-10,0-18.2-8.1-18.2-18.2c0-10,8.1-18.2,18.2-18.2h71.9c10,0,18.2,8.1,18.2,18.2C500.4,515,492.2,523.2,482.2,523.2z"/>
	</g>
</g>
</svg>
