<?xml version="1.0" encoding="utf-8"?>
<!-- Generator: Adobe Illustrator 27.1.0, SVG Export Plug-In . SVG Version: 6.00 Build 0)  -->
<svg version="1.1" id="Layer_1" xmlns="http://www.w3.org/2000/svg" xmlns:xlink="http://www.w3.org/1999/xlink" x="0px" y="0px"
	 viewBox="0 0 708 372.3" style="enable-background:new 0 0 708 372.3;" xml:space="preserve">
<style type="text/css">
	.st0{clip-path:url(#SVGID_00000101819608882724131650000005065286603131597222_);}
	.st1{clip-path:url(#SVGID_00000013187875248395498500000008060959557100823430_);}
	.st2{clip-path:url(#SVGID_00000137102934912730273740000018141416425528015512_);}
	.st3{clip-path:url(#SVGID_00000087397385013620152680000007753243052697863356_);}
	.st4{fill-rule:evenodd;clip-rule:evenodd;fill:#6E81B6;}
	.st5{fill-rule:evenodd;clip-rule:evenodd;fill:#FFFFFF;}
	.st6{fill-rule:evenodd;clip-rule:evenodd;}
</style>
<g>
	<defs>
		<path id="SVGID_1_" d="M353.3,374.9c197.3,0,357.2-84.1,357.2-187.9S550.6-0.9,353.3-0.9S-3.9,83.2-3.9,187S156,374.9,353.3,374.9
			L353.3,374.9z"/>
	</defs>
	<clipPath id="SVGID_00000133518315587931040280000000695174438864602513_">
		<use xlink:href="#SVGID_1_"  style="overflow:visible;"/>
	</clipPath>
	<g style="clip-path:url(#SVGID_00000133518315587931040280000000695174438864602513_);">
		<g>
			<defs>
				<rect id="SVGID_00000036213081526861626240000017835080883563465103_" x="-3.9" y="-0.9" width="714.3" height="375.8"/>
			</defs>
			<clipPath id="SVGID_00000043457738054382834440000005521183795835448244_">
				<use xlink:href="#SVGID_00000036213081526861626240000017835080883563465103_"  style="overflow:visible;"/>
			</clipPath>
			<g style="clip-path:url(#SVGID_00000043457738054382834440000005521183795835448244_);">
				
					<image style="overflow:visible;enable-background:new    ;" width="365" height="196" xlink:href="98FEB4A3.png"  transform="matrix(1.9617 0 0 -1.9617 -3.9836 380.1312)">
				</image>
			</g>
		</g>
	</g>
</g>
<g>
	<defs>
		<path id="SVGID_00000182505264872981834530000001040251577423683765_" d="M353.3,374.9c197.3,0,357.2-84.1,357.2-187.9
			S550.6-0.9,353.3-0.9S-3.9,83.2-3.9,187S156,374.9,353.3,374.9L353.3,374.9z"/>
	</defs>
	<clipPath id="SVGID_00000014603542989089658820000006549462374373374386_">
		<use xlink:href="#SVGID_00000182505264872981834530000001040251577423683765_"  style="overflow:visible;"/>
	</clipPath>
	<g style="clip-path:url(#SVGID_00000014603542989089658820000006549462374373374386_);">
		<g>
			<defs>
				<rect id="SVGID_00000156574688333971185630000002017651852492110228_" x="-3.9" y="-0.9" width="714.3" height="375.8"/>
			</defs>
			<clipPath id="SVGID_00000059291025414704501190000003322622287665494433_">
				<use xlink:href="#SVGID_00000156574688333971185630000002017651852492110228_"  style="overflow:visible;"/>
			</clipPath>
			<g style="clip-path:url(#SVGID_00000059291025414704501190000003322622287665494433_);">
				
					<image style="overflow:visible;enable-background:new    ;" width="365" height="196" xlink:href="98FEB4A1.png"  transform="matrix(1.9617 0 0 -1.9617 -3.9836 380.1312)">
				</image>
			</g>
		</g>
	</g>
</g>
<path class="st4" d="M353.3,360.9c189.6,0,343.2-77.9,343.2-173.9S542.9,13.1,353.3,13.1C163.7,13.1,10.1,90.9,10.1,187
	S163.7,360.9,353.3,360.9L353.3,360.9z"/>
<path class="st5" d="M422.8,243.2l17-87.6c3.8-19.8,0.6-34.5-9.5-43.8c-9.8-9-26.5-13.4-51-13.4h-29.5l8.4-43.4c0.6-3-1.4-6-4.4-6.5
	c-0.4-0.1-0.7-0.1-1.1-0.1h-40.7c-2.7,0-5,1.9-5.5,4.5l-18.1,93c-1.6-10.5-5.7-19.5-12.2-26.9c-11.9-13.7-30.8-20.6-56.1-20.6h-78.9
	c-2.7,0-5,1.9-5.5,4.5L99.4,291.2c-0.3,1.6,0.1,3.3,1.2,4.6c1.1,1.3,2.6,2,4.3,2h41c2.7,0,5-1.9,5.5-4.5l8.9-45.5h30.5
	c16,0,29.5-1.7,40-5.2c10.7-3.5,20.6-9.4,29.4-17.6c7-6.5,12.9-13.7,17.3-21.5l-7.3,37.6c-0.3,1.6,0.1,3.3,1.2,4.6
	c1.1,1.3,2.6,2,4.3,2h40.7c2.7,0,5-1.9,5.5-4.5l20.1-103.4h27.9c11.9,0,15.4,2.4,16.3,3.4c0.9,0.9,2.6,4.2,0.6,14.5l-16.2,83.3
	c-0.6,3,1.4,6,4.4,6.5c0.3,0.1,0.7,0.1,1,0.1h41.3C420,247.7,422.3,245.8,422.8,243.2L422.8,243.2z M234.2,170.8
	c-2.6,13.1-7.4,22.5-14.3,27.8c-7.1,5.4-18.3,8.2-33.5,8.2h-18.2l13.1-67.6h23.5c17.3,0,24.2,3.7,27,6.8
	C235.7,150.3,236.5,158.9,234.2,170.8z M594.2,118.9c-11.9-13.7-30.8-20.6-56.1-20.6h-78.9c-2.7,0-5,1.9-5.5,4.5l-36.6,188.3
	c-0.3,1.6,0.1,3.3,1.2,4.6s2.6,2,4.3,2h41c2.7,0,5-1.9,5.5-4.5l8.9-45.5h30.5c16,0,29.5-1.7,40-5.2c10.7-3.5,20.6-9.4,29.4-17.6
	c7.3-6.7,13.3-14.2,17.8-22.3c4.5-8.1,7.8-17.1,9.7-26.9C610,151.8,606.3,132.7,594.2,118.9L594.2,118.9z M554.3,170.8
	c-2.6,13.1-7.4,22.5-14.3,27.8c-7.1,5.4-18.3,8.2-33.5,8.2h-18.2l13.1-67.6h23.5c17.3,0,24.2,3.7,27,6.8
	C555.8,150.3,556.6,158.9,554.3,170.8L554.3,170.8z"/>
<path class="st6" d="M204.8,133.6c15.6,0,26,2.9,31.2,8.6c5.2,5.8,6.4,15.6,3.7,29.6c-2.8,14.6-8.3,25-16.4,31.2
	c-8.1,6.2-20.4,9.3-36.9,9.3h-25l15.3-78.8H204.8L204.8,133.6z M104.8,292.2h41l9.7-50.1h35.1c15.5,0,28.3-1.6,38.3-4.9
	c10-3.3,19.1-8.7,27.3-16.4c6.9-6.3,12.4-13.3,16.7-20.9c4.3-7.6,7.3-16,9.1-25.2c4.3-22.3,1.1-39.7-9.8-52.2
	c-10.9-12.5-28.2-18.7-51.9-18.7h-78.9L104.8,292.2z M312.2,53.9h40.7l-9.7,50.1h36.3c22.8,0,38.5,4,47.2,11.9
	c8.7,8,11.3,20.9,7.8,38.7l-17,87.6H376l16.2-83.3c1.8-9.5,1.2-15.9-2-19.4c-3.2-3.4-10-5.2-20.4-5.2h-32.5l-21,107.9h-40.7
	L312.2,53.9z M524.9,133.6c15.6,0,26,2.9,31.2,8.6c5.2,5.8,6.4,15.6,3.7,29.6c-2.8,14.6-8.3,25-16.4,31.2
	c-8.1,6.2-20.4,9.3-36.9,9.3h-25l15.3-78.8H524.9z M425,292.2h41l9.7-50.1h35.1c15.5,0,28.3-1.6,38.3-4.9c10-3.3,19.1-8.7,27.3-16.4
	c6.9-6.3,12.4-13.3,16.7-20.9c4.3-7.6,7.3-16,9.1-25.2c4.3-22.3,1.1-39.7-9.8-52.2c-10.9-12.5-28.2-18.7-51.9-18.7h-78.9L425,292.2
	L425,292.2z"/>
</svg>
