<?xml version="1.0" encoding="UTF-8"?>
<svg id="OBJECTS" xmlns="http://www.w3.org/2000/svg" xmlns:xlink="http://www.w3.org/1999/xlink" viewBox="0 0 639 536">
  <defs>
    <style>
      .cls-1 {
        fill: gray;
        font-family: UVNVanBold, 'UVN Van';
        font-size: 32.6px;
      }

      .cls-2 {
        fill: #ffbf0d;
      }

      .cls-3 {
        fill: #fff;
      }

      .cls-4 {
        fill: #9c9c9c;
      }

      .cls-5 {
        fill: #a2e0e2;
      }

      .cls-6 {
        fill: #ff9600;
      }

      .cls-7 {
        letter-spacing: -.06em;
      }

      .cls-8 {
        fill: #aaddd9;
      }

      .cls-9 {
        fill: #70a09b;
      }

      .cls-10 {
        fill: #f8ad28;
      }

      .cls-11 {
        fill: #d7f2f3;
      }

      .cls-12 {
        fill: #95d5cf;
      }

      .cls-13 {
        fill: #ffdb2d;
      }

      .cls-14 {
        fill: #e4e4e4;
      }

      .cls-15 {
        clip-path: url(#clippath);
      }

      .cls-16 {
        fill: #90d0d4;
      }

      .cls-17 {
        fill: #d2d2d2;
      }

      .cls-18 {
        fill: #3fbcd2;
      }

      .cls-19 {
        fill: #ededed;
      }
    </style>
    <clipPath id="clippath">
      <circle class="cls-5" cx="137.77" cy="317.52" r="95.83" transform="translate(-29.39 14.44) rotate(-5.42)"/>
    </clipPath>
  </defs>
  <g>
    <path class="cls-2" d="m208.08,123.87l-3.28-.23-23.02,24.97.5,3.25c.09.6,2.38,14.79,14.33,21.3,8.44,4.6,18.99,4.13,31.35-1.41l2.68-1.2.98-2.77c4.52-12.77,4.13-23.32-1.14-31.36-7.47-11.38-21.79-12.51-22.4-12.56Z"/>
    <path class="cls-6" d="m201.53,129.3l-1.83-.13-12.82,13.91.28,1.81c.05.33,1.33,8.24,7.98,11.87,4.7,2.56,10.58,2.3,17.46-.79l1.49-.67.54-1.54c2.52-7.11,2.3-12.99-.63-17.47-4.16-6.34-12.14-6.97-12.48-6.99Z"/>
    <polygon class="cls-9" points="170.24 71.8 197.15 106.41 245.86 94.6 213.91 65.14 170.24 71.8"/>
    <polygon class="cls-9" points="208.39 106.27 182.95 126.59 164.76 153.61 179.47 171.31 227.92 118.75 208.39 106.27"/>
    <polygon class="cls-9" points="127.3 118.37 124.21 162.44 156.17 191.9 163.99 142.39 127.3 118.37"/>
    <path class="cls-5" d="m86.1,32.02l-4.62,1.04-.66,4.69c-.3,2.16-7.11,53.31,23.02,81.09,17.97,16.56,54.93,32.25,56.49,32.91l4.43,1.87,43.63-47.33-2.22-4.27c-.78-1.51-19.42-37.07-37.39-53.63-30.13-27.77-80.56-16.83-82.69-16.35Z"/>
    <g>
      <path class="cls-9" d="m128.65,95.16c-5.56-5.12-5.91-13.79-.79-19.34,5.12-5.56,13.79-5.91,19.34-.79,5.56,5.12,5.91,13.79.79,19.34-5.12,5.56-13.79,5.91-19.34.79Z"/>
      <path class="cls-3" d="m122.83,71.17c-7.67,8.33-7.14,21.34,1.18,29.02,8.33,7.67,21.34,7.14,29.02-1.18,7.67-8.33,7.14-21.34-1.18-29.02-8.33-7.67-21.34-7.14-29.02,1.18Zm20.13,18.56c-2.56,2.78-6.9,2.95-9.67.39-2.78-2.56-2.95-6.9-.39-9.67,2.56-2.78,6.9-2.95,9.67-.39,2.78,2.56,2.95,6.9.39,9.67Z"/>
    </g>
  </g>
  <path class="cls-6" d="m128.66,418.06c.4-1.77.6-3.58.6-5.42s-.2-3.65-.6-5.42l.69-.39,4.51-2.55-2.6-4.42-2.6-4.42-2.6-4.42-4.51,2.55-.71.4c-1.34-1.2-2.44-2.25-4.02-3.16-1.65-.95-2.82-1.71-4.82-2.27v-6.53h-16v6.53c-3,.56-3.71,1.32-5.36,2.27-1.58.91-3.14,1.96-4.47,3.16l-.75-.4-4.53-2.55-2.61,4.42-2.61,4.42-2.61,4.42,4.51,2.55.69.39c-.4,1.77-.6,3.58-.6,5.42s.2,3.65.6,5.42l-.69.39-4.51,2.55,2.6,4.42,2.6,4.42,2.6,4.42,4.51-2.55.71-.4c1.34,1.2,2.98,2.26,4.56,3.16,1.65.95,2.36,1.71,5.36,2.27v6.26h16v-6.26c2-.56,3.17-1.32,4.82-2.27,1.58-.91,2.86-1.96,4.2-3.16l.61.4,4.46,2.55,2.58-4.42,2.59-4.42,2.6-4.42-4.51-2.55-.7-.39Zm-25.2,9.04c-8.13,0-14.75-6.49-14.75-14.46s6.62-14.46,14.75-14.46,14.75,6.49,14.75,14.46-6.62,14.46-14.75,14.46Z"/>
  <path class="cls-6" d="m598.27,438.71l-9.25-9.9c-.79-.85-.36-2.26.78-2.49,1.9-.38,3.7-1.37,5.09-3,2.69-3.15,2.85-7.85.37-11.17-3.27-4.37-9.49-4.84-13.36-1.21-1.27,1.18-2.11,2.65-2.54,4.21-.3,1.12-1.74,1.46-2.53.61l-9.25-9.9-9.9,9.25c-.85.79-2.26.36-2.49-.78-.38-1.9-1.37-3.7-3-5.09-3.15-2.69-7.85-2.85-11.17-.37-4.37,3.27-4.84,9.49-1.21,13.36,1.18,1.27,2.65,2.11,4.21,2.54,1.12.3,1.46,1.74.61,2.53l-9.9,9.25,9.25,9.9c.79.85.36,2.26-.78,2.49-1.9.38-3.7,1.37-5.09,3-2.69,3.15-2.85,7.85-.37,11.17,3.27,4.37,9.49,4.84,13.36,1.22,1.27-1.19,2.11-2.65,2.54-4.21.3-1.12,1.74-1.46,2.53-.61l9.25,9.9,32.84-30.7Z"/>
  <path class="cls-5" d="m476.83,172.21c2.35.7,4.23,2.13,5.5,3.94.77,1.09,2.44.89,2.96-.34l6.07-14.28-47.37-20.14-6.07,14.27c-.52,1.23.49,2.57,1.81,2.37,1.83-.28,3.76-.08,5.58.7,5.59,2.38,7.99,9.11,4.93,14.55-2.32,4.13-7.32,6.15-11.86,4.8-2.35-.7-4.23-2.13-5.5-3.94-.77-1.09-2.44-.89-2.96.34l-6.07,14.27,47.37,20.14,6.07-14.28c.52-1.23-.5-2.57-1.81-2.37-1.83.28-3.76.08-5.58-.7-5.59-2.38-7.99-9.11-4.93-14.55,2.32-4.13,7.32-6.15,11.86-4.8Z"/>
  <g>
    <rect class="cls-14" x="481.27" y="201.61" width="127.95" height="219.58" rx="13.81" ry="13.81" transform="translate(136.92 -165.6) rotate(19.7)"/>
    <g>
      <g>
        <rect class="cls-8" x="467.33" y="239.48" width="159.29" height="127.95" transform="translate(76.87 716.09) rotate(-70.3)"/>
        <polyline class="cls-8" points="461.39 357.35 581.85 400.49 635.56 250.52"/>
      </g>
      <g>
        <rect class="cls-5" x="467.33" y="239.48" width="159.29" height="127.95" transform="translate(76.87 716.09) rotate(-70.3)"/>
        <polyline class="cls-12" points="461.39 357.35 581.85 400.49 635.56 250.52"/>
      </g>
    </g>
    <circle class="cls-3" cx="516.21" cy="397.15" r="11.57" transform="translate(-131.28 326.69) rotate(-31.36)"/>
  </g>
  <g>
    <path class="cls-10" d="m541,82.79v44.62c0,7.99,3.84,18.59,12.39,18.59h20.31l37.3,16.18v-16.18h12.62c8.57,0,14.38-10.78,14.38-18.59v-44.62c0-7.93-5.57-12.79-14.38-12.79h-70.22c-8.55,0-12.39,4.74-12.39,12.79Z"/>
    <circle class="cls-10" cx="608.44" cy="106.36" r="6.53"/>
    <circle class="cls-10" cx="588.84" cy="106.36" r="6.53"/>
    <circle class="cls-10" cx="568.96" cy="106.36" r="6.53"/>
  </g>
  <g>
    <path class="cls-5" d="m559.06,31h-86.53c-10.86,0-17.52,6.76-17.52,16.53v54.98c0,9.62,6.96,22.49,17.52,22.49h15.48v20.35l46.03-20.35h25.03c10.54,0,16.94-12.65,16.94-22.49v-54.98c0-9.92-6.4-16.53-16.94-16.53Z"/>
    <circle class="cls-3" cx="491.23" cy="76.57" r="8.05" transform="translate(89.74 369.78) rotate(-45)"/>
    <circle class="cls-3" cx="515.38" cy="76.57" r="8.05" transform="translate(96.81 386.85) rotate(-45)"/>
    <circle class="cls-3" cx="539.87" cy="76.57" r="8.05" transform="translate(341.73 584.56) rotate(-76.76)"/>
  </g>
  <g>
    <circle class="cls-5" cx="137.77" cy="317.52" r="95.83" transform="translate(-29.39 14.44) rotate(-5.42)"/>
    <g class="cls-15">
      <path class="cls-18" d="m53.97,267.08c-1.09,7.93,1.64,12.03,0,15.86-1.64,3.83-3.55,10.66-1.91,15.31,1.64,4.65,4.1,14.76,6.29,15.04,2.19.27-1.64-10.94.55-7.38,2.19,3.55,2.19,8.84,6.02,12.49,3.83,3.64,9.02,3.1,13.12,6.65,4.1,3.56,8.2,8.75,12.03,8.2,0,0-.27,2.73-2.19,7.38-1.91,4.65-2.19,10.11.27,13.4,2.46,3.28,4.92,8.2,7.11,10.66,2.19,2.46,3.83,15.58,3.28,22.15-.55,6.56,2.46,21.32,9.3,24.61,6.83,3.28,0-1.64-1.37-5.74-1.37-4.1,1.06-13.67,4.36-15.04,3.3-1.37,6.31-6.84,8.77-10.66,2.46-3.83,8.75-5.47,10.66-10.12,1.92-4.65,1.09-10.12,2.19-12.58,1.09-2.46,4.1-7.93-2.46-11.21-6.56-3.28-9.29-1.64-9.57-4.65-.27-3.01-1.91-6.29-6.56-7.66-4.65-1.37-8.75-4.02-13.94-4.61-5.19-.59-6.29,3.52-9.02,1.33-2.73-2.19-4.92-4.37-6.02-7.11-1.09-2.73-4.37-1.09-4.1-2.73.27-1.64,4.65-6.29-.27-4.65-4.92,1.64-9.3,1.09-9.02-3.28.27-4.37,6.29-6.01,8.75-6.56,2.46-.55,4.37,2.46,7.38,4.37,3.01,1.91.27-2.73,1.92-6.01,1.64-3.28,7.93-3.01,8.75-7.65.82-4.65-.27-8.48,4.65-9.02,4.92-.55,10.12.27,10.66-2.19.55-2.46-5.74.82-6.02-2.19-.27-3.01,5.47-7.11,7.11-4.1,1.64,3.01,5.74,3.28,6.29,2.19.55-1.09,0-3.01-1.91-7.66-1.91-4.65-3.83-3.28-5.47-8.48-1.64-5.19-4.37.27-7.11-2.46-2.73-2.73-6.01-8.48-6.56-3.55-.55,4.92-.55,7.66-3.01,11.48-2.46,3.83-3.56.82-5.74-1.64-2.19-2.46-7.11-4.92-5.47-7.11,1.64-2.19,3.28-7.93,5.74-6.29,2.46,1.64,6.29,1.64,5.74-1.09-.55-2.73,0-3.83,1.09-5.19,1.09-1.37,4.92-3.83,4.92,1.09s-.55,6.29,3.28,6.84c3.83.55,8.2.82,7.93-1.64-.27-2.46,1.09-1.91,0-6.02-1.09-4.1-4.37-4.37-7.93-6.29-3.55-1.91-5.47-4.92-8.48-3.83-3.01,1.09-3.28,2.19-3.56,5.19-.27,3.01-1.91,4.1-3.01,2.73-1.09-1.37.27-5.74-3.83-3.01-4.1,2.73-5.74,7.38-7.93,4.1-2.19-3.28,3.28-9.02-2.46-6.56-5.74,2.46-9.84,5.19-6.84,6.29,3.01,1.09,6.02,3.01,3.01,4.1-3.01,1.09-9.02-.82-11.21,1.37-2.19,2.19-8.2,13.12-8.2,13.12Z"/>
      <path class="cls-18" d="m86.23,237.55c-.02,3.06.82,5.47,3.55,2.73,2.73-2.73,4.37-6.01,6.29-4.65,1.91,1.37,5.19,1,6.56.91,1.37-.09,1.64-4.19,5.47-3.65,3.83.55,2.46-.82,6.56-3.01,4.1-2.19,12.85-6.01,3.83-4.92-9.02,1.09-9.57-1.37-15.86,2.73-6.29,4.1-7.65,4.1-9.3,5.19-1.64,1.09-3.55-3.28-5.74,0-2.19,3.28-1.35,1.53-1.37,4.65Z"/>
      <path class="cls-18" d="m119.04,229.08c-3.23,2.79-8.2,6.84-4.38,6.84s5.69-2,7.76.64c2.08,2.64,1.26,6.74,1.26,8.66s-1.09,6.29,1.64,11.76c2.73,5.47,3.01,9.02,5.74,5.47,2.73-3.55,9.3-10.39,12.58-10.94,3.28-.55,6.56-1.91,8.2-4.65,1.64-2.73,0-5.39,2.73-7.34,2.73-1.95,2.19-4.41,3.01-7.42.82-3.01,8.2-3.01,4.92-4.65-3.28-1.64-9.29-2.73-16.4-1.91-7.11.82-21.05-1.64-27.07,3.55Z"/>
      <path class="cls-18" d="m88.96,313.56c-1.74,2.84-.82,3.01,1.09,3.55,1.91.55-.82,3.83,1.37,4.1,2.19.27,7.11,1.64,8.48,0,1.37-1.64-2.19-1-4.65-2.82-2.46-1.82-5.05-6.85-6.29-4.83Z"/>
      <path class="cls-18" d="m221.29,358.12c-2.94,1.47-1.64,3.83-4.37,5.47-2.73,1.64-1.64,2.19-2.46,6.01-.82,3.83.27,6.01,2.19,3.01,1.91-3.01,7.93-16.13,4.65-14.49Z"/>
      <path class="cls-18" d="m236.87,312.19c-.82-4.65-6.84-46.75-6.84-46.75,0,0-16.13-10.39-18.86-8.2-2.73,2.19-7.38,1.86-6.83-.3.55-2.16,4.1-1.61-1.91-5.71-6.02-4.1-7.11-7.66-11.76-2.46-4.65,5.19-5.74,9.57-8.48,10.94-2.73,1.37-4.92,5.74-1.91,6.83,3.01,1.09,3.28,0,5.74,2.19,2.46,2.19,5.74,1.64,6.29.27.55-1.37,1.1-5.74,1.37-7.38.27-1.64,3.05-7.11,2.76-2.73-.3,4.37,3.8,4.37,1.07,7.38-2.73,3.01-1.09,5.47-6.56,6.01-5.47.55-5.74-2.73-8.75-1.09-3.01,1.64-2.73,2.73-3.83,4.37-1.09,1.64-6.84,4.92-6.84,4.92,0,0-4.65-1.64-2.46,1.37,2.19,3.01,4.1,6.56,2.19,6.83-1.91.27-7.11-2.73-7.11.55s-.82,6.84,1.37,7.66c1.55.58,2.55,1.83,3.96,1.66-1.1.48-2.1,1.16-2.87,2.17-2.13,2.78-.82,7.65-5.19,9.29-4.37,1.64-4.37,3.55-5.19,7.11-.82,3.55,0,12.58,1.09,13.4,1.1.82,3.01,7.66,7.65,7.11,4.65-.55,9.57-.76,11.21.03,1.64.79,4.38-1.67,5.19,4.62.82,6.29,2.73,7.11,3.83,10.39,1.09,3.28-.55,10.11,0,14.22.55,4.1,4.37,11.21,4.37,14.76s4.1,5.19,6.29,3.83c2.19-1.37,6.84-4.1,8.75-8.48,1.91-4.37,1.91-6.56,4.92-12.3,3.01-5.74,2.19-9.84,3.55-14.22,1.37-4.38,4.66-7.38,9.16-12.3,4.51-4.92,3.7-7.66,0-7.38-3.69.27-6.16-3.28-8.07-7.65-1.91-4.37-4.1-15.31-2.46-11.76,1.64,3.55,4.92,13.4,8.2,15.04,3.28,1.64,9.3-2.79,10.66-4.4,1.37-1.61.82-6.26-2.73-8.18-3.55-1.91-1.37-3.55,2.19-1.37,3.55,2.19,7.65,4.37,6.84-.27Zm-28.98-11.76c-.27,2.19.82,5.74-5.19,4.37-6.02-1.37-6.02-4.65-8.48-2.19-2.46,2.46-5.47,4.65-9.02.82-3.55-3.83-3.01-4.92-4.92-5.19-1.36-.19-5.91-1.21-9.7-.11.29-.17.61-.41.95-.71,2.73-2.46,2.19-3.28,5.19-6.01,3.01-2.73,5.2-5.19,7.38-2.73,2.19,2.46,6.84,3.01,5.19,5.74-1.64,2.73-.55,4.37,1.37,2.73,1.91-1.64,4.65-2.73,2.73-4.92-1.91-2.19-3.83-7.93-1.1-4.1,2.73,3.83,3.55,5.74,5.2,7.93,1.64,2.19,3.28,3.55,3.83,2.19.55-1.37-.27-4.37.55-4.92.82-.55,0,4.65,2.46,4.92,2.46.27,3.83,0,3.55,2.19Zm6.29-9.3c-1.91-1.09-5.47,0-9.84,1.37-4.38,1.37-.88-3.04,1.09-6.01,1.76-2.66.82.82,4.65,1.09,3.83.27,6.02,4.65,4.1,3.55Zm9.57,8.48c-.82.82-2.19-3.83-3.01-6.01-.82-2.19-.8-5.99,1.51-8.1,2.88-2.63,1.5,3.46,1.5,6.74s.82,6.56,0,7.38Z"/>
      <path class="cls-18" d="m170.98,266.26c-1.68.5-3.01,3.83-2.19,5.47.82,1.64-.82-.82-3.01.55-2.19,1.37-5.44,5.19-2.45,5.47,2.99.27,2.45-2.19,5.18-1.09,2.73,1.09,5.74.82,5.74-1.91s-.55-9.3-3.28-8.48Z"/>
      <path class="cls-18" d="m153.21,253.68c-1.65.24-2.19,4.37,1.37,4.92,3.55.55,9.92-.82,7.56-3.01-2.36-2.19-5.1-2.46-8.92-1.91Z"/>
    </g>
  </g>
  <g>
    <g>
      <polygon class="cls-6" points="325.13 397.15 491.57 273.27 164.39 273.27 325.13 397.15"/>
      <path class="cls-2" d="m164.39,273.49l148.59-132.69c8.88-6.68,21.11-6.68,29.99,0l148.59,132.69H164.39Z"/>
    </g>
    <path class="cls-11" d="m328.38,375.26l132.62-68.04v-95.67c0-3.62-3.57-6.55-7.98-6.55h-247.04c-4.41,0-7.98,2.93-7.98,6.55v96.84l130.38,66.87Z"/>
    <g>
      <path class="cls-19" d="m170.37,471.25s13.65,11.39,23.04,11.39h269.12c16.03,0,29.03-13,29.03-29.03v-180.34l-321.2,197.98Z"/>
      <path class="cls-14" d="m485.58,471.25c-5.31,6.92-13.65,11.39-23.04,11.39H193.42c-16.03,0-29.03-13-29.03-29.03v-180.34s301.44,187.12,321.2,197.98Z"/>
      <path class="cls-17" d="m170.37,471.25h0c.32.42.65.82.99,1.22.03.04.06.07.09.11.32.37.65.73.99,1.08.03.04.07.07.1.11.36.37.73.73,1.1,1.09,0,0,.01.01.02.02,1.18,1.09,2.44,2.09,3.79,2.98.06.04.13.08.19.12.37.24.75.47,1.13.69.1.06.2.12.3.17.36.2.72.4,1.08.58.11.06.22.12.33.17.38.19.76.37,1.15.54.09.04.18.09.28.13.97.42,1.97.79,2.99,1.1.11.03.22.06.33.09.39.11.78.22,1.18.32.17.04.34.08.52.12.34.08.69.15,1.03.22.19.04.39.07.58.1.34.06.68.11,1.02.15.2.03.39.05.59.07.36.04.73.07,1.1.1.17.01.34.21.52.22.54.03,1.09.23,1.63.23h269.12c.55,0,1.09-.2,1.63-.23.17,0,.34-.12.52-.13.37-.03.74-.1,1.1-.14.2-.02.39-.07.59-.1.34-.05.68-.11,1.02-.16.19-.03.39-.07.58-.11.35-.07.69-.14,1.03-.22.17-.04.35-.08.52-.12.4-.1.79-.21,1.18-.32.11-.03.22-.06.33-.09,1.02-.31,2.02-.68,2.99-1.1.09-.04.19-.08.28-.13.39-.17.77-.35,1.15-.54.11-.06.22-.11.34-.17.36-.19.72-.38,1.08-.58.1-.06.2-.12.3-.17.38-.22.76-.45,1.13-.69.06-.04.13-.08.19-.12,1.35-.89,2.61-1.88,3.79-2.98,0,0,.01-.01.02-.02.38-.35.75-.71,1.1-1.09.03-.04.07-.07.1-.11.34-.35.67-.72.99-1.08.03-.04.06-.07.09-.11.34-.4.67-.8.99-1.22h0c-9.88-5.43-157.61-96.08-157.61-96.08,0,0-147.72,90.65-157.61,96.08Z"/>
    </g>
    <text class="cls-1" transform="translate(226.34 256.15)"><tspan x="0" y="0">CON</tspan><tspan class="cls-7" x="68.63" y="0">T</tspan><tspan x="82.11" y="0">ACT ME!</tspan></text>
    <g>
      <path class="cls-4" d="m207.18,272.7h1.54l.14.92h.06c.69-.65,1.66-1.12,2.58-1.12,2.08,0,3.27,1.61,3.27,4.09,0,2.74-1.7,4.33-3.57,4.33-.72,0-1.53-.35-2.18-.95h-.04l.09,1.41v2.53h-1.89v-11.21Zm5.66,3.91c0-1.6-.56-2.54-1.86-2.54-.61,0-1.25.29-1.9.96v3.61c.59.53,1.26.72,1.74.72,1.14,0,2.02-.94,2.02-2.76Z"/>
      <path class="cls-4" d="m217.08,269.19h1.89v2.98l-.11,1.72h.06c.7-.75,1.6-1.38,2.82-1.38,1.85,0,2.69,1.18,2.69,3.25v4.98h-1.89v-4.73c0-1.29-.41-1.88-1.5-1.88-.79,0-1.33.38-2.06,1.13v5.48h-1.89v-11.55Z"/>
      <path class="cls-4" d="m226.78,278.58c0-1.8,1.58-2.7,5.55-2.98-.07-.9-.6-1.58-1.91-1.58-.9,0-1.8.4-2.62.85l-.7-1.25c.97-.58,2.29-1.12,3.68-1.12,2.23,0,3.46,1.24,3.46,3.48v4.75h-1.56l-.14-1h-.06c-.84.65-1.92,1.19-3,1.19-1.57,0-2.69-.96-2.69-2.35Zm5.55-.11v-1.69c-2.89.19-3.72.78-3.72,1.65,0,.71.63,1.01,1.42,1.01s1.55-.38,2.3-.97Z"/>
      <path class="cls-4" d="m236.28,272.7h1.45l.14,1.02h.04c.35-.69.86-1.22,1.79-1.22.74,0,1.25.46,1.46,1.35.37-.79.91-1.35,1.83-1.35,1.14,0,1.79.93,1.79,2.54v5.69h-1.82v-5.56c0-.7-.19-1.06-.64-1.06s-.68.33-1.01,1v5.61h-1.57v-5.56c0-.7-.19-1.06-.64-1.06-.42,0-.71.33-1.01,1v5.61h-1.82v-8.03Z"/>
      <path class="cls-4" d="m246.29,276.73c0-2.62,1.71-4.22,3.53-4.22.92,0,1.59.35,2.21.94h.04l-.09-1.35v-2.91h1.89v11.55h-1.54l-.14-.94h-.06c-.62.63-1.52,1.13-2.42,1.13-2.07,0-3.43-1.55-3.43-4.2Zm5.7,1.68v-3.61c-.58-.53-1.13-.72-1.71-.72-1.12,0-2.05.96-2.05,2.64s.73,2.66,1.95,2.66c.66,0,1.26-.3,1.82-.96Z"/>
      <path class="cls-4" d="m256.45,277.68v-4.98h1.89v4.73c0,1.28.4,1.88,1.5,1.88.75,0,1.3-.32,2.01-1.19v-5.42h1.89v8.03h-1.56l-.14-1.28h-.07c-.76.88-1.65,1.47-2.85,1.47-1.86,0-2.69-1.18-2.69-3.25Z"/>
      <path class="cls-4" d="m266.41,276.73c0-2.68,2.11-4.22,4.56-4.22,1.29,0,2.3.49,2.97,1.13l-.89,1.19c-.64-.5-1.26-.77-1.98-.77-1.61,0-2.72,1.07-2.72,2.68s1.09,2.66,2.66,2.66c.92,0,1.67-.41,2.29-.88l.79,1.21c-.93.8-2.11,1.22-3.25,1.22-2.52,0-4.44-1.54-4.44-4.2Z"/>
      <path class="cls-4" d="m275.86,272.7h1.45l.14,1.02h.04c.35-.69.86-1.22,1.79-1.22.74,0,1.25.46,1.46,1.35.37-.79.91-1.35,1.83-1.35,1.14,0,1.79.93,1.79,2.54v5.69h-1.82v-5.56c0-.7-.19-1.06-.64-1.06s-.68.33-1.01,1v5.61h-1.57v-5.56c0-.7-.19-1.06-.64-1.06-.42,0-.71.33-1.01,1v5.61h-1.82v-8.03Z"/>
      <path class="cls-4" d="m289.85,274.2h-3.47v-1.5h5.36v8.03h-1.89v-6.54Zm-.52-4.23c0-.75.57-1.28,1.34-1.28s1.34.52,1.34,1.28-.57,1.26-1.34,1.26-1.34-.5-1.34-1.26Z"/>
      <path class="cls-4" d="m296.25,272.7h1.54l.14,1.21h.07c.77-.78,1.67-1.41,2.9-1.41,1.86,0,2.69,1.18,2.69,3.25v4.98h-1.89v-4.73c0-1.29-.41-1.88-1.5-1.88-.79,0-1.33.38-2.06,1.13v5.48h-1.89v-8.03Z"/>
      <path class="cls-4" d="m306.14,269.19h1.89v2.98l-.11,1.72h.06c.7-.75,1.6-1.38,2.82-1.38,1.85,0,2.69,1.18,2.69,3.25v4.98h-1.89v-4.73c0-1.29-.42-1.88-1.5-1.88-.79,0-1.33.38-2.06,1.13v5.48h-1.89v-11.55Z"/>
      <path class="cls-4" d="m316.13,279.19h2.9v-6.81h-2.32v-1.2c1.32-.19,2.08-.44,2.81-.86h1.4v8.87h2.54v1.54h-7.33v-1.54Z"/>
      <path class="cls-4" d="m325.4,279.46l.9-1.21c.69.63,1.62,1.14,2.76,1.14,1.27,0,2.21-.59,2.21-1.56,0-1.08-.87-1.77-3.45-1.77v-1.37c2.25,0,3.1-.71,3.1-1.66,0-.86-.73-1.38-1.83-1.38-.9,0-1.68.39-2.38.97l-.97-1.16c.94-.79,2.09-1.32,3.43-1.32,2.12,0,3.65,1,3.65,2.75,0,1.16-.84,1.95-2.1,2.4v.07c1.35.32,2.45,1.2,2.45,2.59,0,1.89-1.82,3-3.95,3-1.79,0-3.04-.65-3.82-1.47Z"/>
      <path class="cls-4" d="m335.52,275.49c0-3.52,1.51-5.36,3.87-5.36s3.87,1.84,3.87,5.36-1.51,5.44-3.87,5.44-3.87-1.94-3.87-5.44Zm6.03,0c0-2.84-.92-3.88-2.16-3.88s-2.16,1.03-2.16,3.88.92,3.96,2.16,3.96,2.16-1.11,2.16-3.96Zm-3.28-.07c0-.71.5-1.16,1.12-1.16s1.12.45,1.12,1.16-.5,1.17-1.12,1.17-1.12-.45-1.12-1.17Z"/>
      <path class="cls-4" d="m345.45,279.64c3.25-2.81,5.22-4.6,5.22-6.22,0-1.1-.67-1.79-1.98-1.79-.9,0-1.66.53-2.29,1.15l-1.04-1.04c1.02-1.02,2.05-1.62,3.58-1.62,2.14,0,3.54,1.27,3.54,3.2s-1.88,3.76-4.29,5.91c.62-.05,1.34-.1,1.92-.1h2.93v1.6h-7.58v-1.1Z"/>
      <path class="cls-4" d="m354.93,276.62c0-4.31,2.18-6.35,4.86-6.35,2.37,0,3.45,1.72,3.45,3.95v4.88h-1.06l-.14-.89h-.07c-.44.6-1.19,1.08-2.06,1.08-1.18,0-2.1-.92-2.1-2.22,0-1.72,1.56-2.47,4.2-2.8v-.24c0-1.39-.71-2.58-2.29-2.58-1.74,0-3.45,1.62-3.45,5.22s1.67,5.26,3.62,5.26c.97,0,1.6-.25,2.23-.68l.58.97c-.89.57-1.75.89-2.87.89-2.6,0-4.91-2.17-4.91-6.49Zm6.91.59v-1.77c-1.88.28-2.59.73-2.59,1.59,0,.62.41.99,1.08.99.53,0,1.04-.3,1.51-.81Z"/>
      <path class="cls-4" d="m365.18,282.15c0-.65.45-1.24,1.28-1.7v-.07c-.44-.25-.82-.67-.82-1.34,0-.53.37-1.1.96-1.51v-.07c-.57-.4-1.03-1.12-1.03-2.07,0-1.84,1.54-2.89,3.3-2.89.47,0,.89.07,1.26.2h3.29v1.44h-1.84c.27.31.51.8.51,1.33,0,1.79-1.41,2.73-3.21,2.73-.37,0-.8-.07-1.23-.23-.32.21-.49.43-.49.75,0,.53.52.76,1.51.76h1.64c2.09,0,3.16.56,3.16,1.96,0,1.59-1.8,2.85-4.63,2.85-2.21,0-3.67-.71-3.67-2.14Zm6.49-.4c0-.63-.55-.79-1.62-.79h-1.28c-.52,0-.9-.03-1.22-.12-.58.33-.79.68-.79,1.05,0,.72.85,1.14,2.33,1.14,1.57,0,2.59-.59,2.59-1.28Zm-1.26-6.35c0-.98-.69-1.59-1.53-1.59s-1.52.61-1.52,1.59.69,1.61,1.52,1.61,1.53-.6,1.53-1.61Z"/>
      <path class="cls-4" d="m374.83,272.7h1.45l.14,1.02h.04c.36-.69.86-1.22,1.79-1.22.74,0,1.25.46,1.46,1.35.37-.79.91-1.35,1.83-1.35,1.14,0,1.79.93,1.79,2.54v5.69h-1.82v-5.56c0-.7-.19-1.06-.64-1.06s-.68.33-1.01,1v5.61h-1.57v-5.56c0-.7-.19-1.06-.64-1.06-.42,0-.71.33-1.01,1v5.61h-1.82v-8.03Z"/>
      <path class="cls-4" d="m385.12,278.58c0-1.8,1.58-2.7,5.55-2.98-.07-.9-.6-1.58-1.91-1.58-.91,0-1.8.4-2.62.85l-.7-1.25c.97-.58,2.29-1.12,3.68-1.12,2.23,0,3.46,1.24,3.46,3.48v4.75h-1.55l-.14-1h-.06c-.84.65-1.92,1.19-3,1.19-1.57,0-2.69-.96-2.69-2.35Zm5.55-.11v-1.69c-2.89.19-3.72.78-3.72,1.65,0,.71.63,1.01,1.42,1.01s1.55-.38,2.3-.97Z"/>
      <path class="cls-4" d="m398.71,274.2h-3.47v-1.5h5.36v8.03h-1.89v-6.54Zm-.52-4.23c0-.75.57-1.28,1.34-1.28s1.34.52,1.34,1.28-.57,1.26-1.34,1.26-1.34-.5-1.34-1.26Z"/>
      <path class="cls-4" d="m407.45,277.81v-7.13h-2.68v-1.5h4.57v8.72c0,1.07.63,1.48,1.44,1.48.41,0,.86-.1,1.37-.31l.44,1.4c-.79.29-1.34.46-2.28.46-1.87,0-2.87-1.15-2.87-3.12Z"/>
      <path class="cls-4" d="m416.94,279.27c0-.94.68-1.66,1.62-1.66s1.62.72,1.62,1.66-.68,1.66-1.62,1.66-1.62-.7-1.62-1.66Z"/>
      <path class="cls-4" d="m424.75,276.73c0-2.68,2.11-4.22,4.57-4.22,1.29,0,2.3.49,2.97,1.13l-.89,1.19c-.64-.5-1.26-.77-1.98-.77-1.61,0-2.72,1.07-2.72,2.68s1.09,2.66,2.66,2.66c.92,0,1.67-.41,2.29-.88l.79,1.21c-.93.8-2.11,1.22-3.25,1.22-2.52,0-4.44-1.54-4.44-4.2Z"/>
      <path class="cls-4" d="m434.32,276.73c0-2.68,1.92-4.22,4.03-4.22s4.03,1.54,4.03,4.22-1.92,4.2-4.03,4.2-4.03-1.54-4.03-4.2Zm6.13,0c0-1.62-.79-2.68-2.1-2.68s-2.1,1.07-2.1,2.68.79,2.66,2.1,2.66,2.1-1.05,2.1-2.66Z"/>
      <path class="cls-4" d="m444.1,272.7h1.45l.14,1.02h.04c.36-.69.86-1.22,1.79-1.22.74,0,1.25.46,1.46,1.35.37-.79.91-1.35,1.83-1.35,1.14,0,1.79.93,1.79,2.54v5.69h-1.82v-5.56c0-.7-.19-1.06-.64-1.06s-.68.33-1.01,1v5.61h-1.57v-5.56c0-.7-.19-1.06-.64-1.06-.42,0-.71.33-1.01,1v5.61h-1.82v-8.03Z"/>
    </g>
  </g>
  <g>
    <polygon class="cls-6" points="352.34 40 319.89 1.09 287.45 40 300 40 300 90 340 90 340 40 352.34 40"/>
    <polygon class="cls-2" points="390 101 390 51 349 51 349 101 337.62 101 370.06 139.91 402.51 101 390 101"/>
  </g>
  <g>
    <circle class="cls-9" cx="436.62" cy="491.8" r="19.14" transform="translate(-153.03 783.03) rotate(-74.69)"/>
    <path class="cls-2" d="m432.47,375.68c-12.19-5.66-25.83-6.26-38.46-1.69-.11.04-.23.08-.34.13-12.34,4.56-22.29,13.66-28,25.6-5.72,11.95-6.55,25.4-2.36,37.87,4.41,13.09,13.69,23.57,26.15,29.51,6.75,3.22,12.01,8.89,14.43,15.57l1.77,4.88,52.07-18.84-1.77-4.88c-2.43-6.72-2.05-14.38,1.04-21.02,5.67-12.19,6.28-25.86,1.71-38.5-4.61-12.75-13.93-22.92-26.23-28.63Z"/>
    <path class="cls-5" d="m403.88,482.67l2.95,8.17c2.27,6.27,9.19,9.52,15.47,7.25l29.35-10.62c6.27-2.27,9.52-9.19,7.25-15.47l-2.95-8.17-52.07,18.84Z"/>
    <path class="cls-13" d="m403.09,407.83c-3.14,6.71-11.13,9.59-17.83,6.45-6.71-3.14-9.59-11.13-6.45-17.83s11.13-9.59,17.83-6.45c6.7,3.14,9.59,11.13,6.45,17.83Z"/>
    <circle class="cls-13" cx="393.42" cy="425.72" r="23.01" transform="translate(-44.88 805.07) rotate(-88.14)"/>
    <path class="cls-3" d="m395,416.07c5.19.93,8.65,5.89,7.73,11.08-.93,5.19-5.89,8.65-11.08,7.73-5.19-.93-8.65-5.89-7.73-11.08s5.89-8.65,11.08-7.73Z"/>
  </g>
  <path class="cls-10" d="m240.77,500.64c1.86-3.2,3.38-6.61,4.53-10.19,1.15-3.58,1.9-7.24,2.25-10.92l1.57-.34,10.2-2.2-2.2-10.2-2.2-10.2-2.2-10.2-10.2,2.2-1.6.34c-1.8-3.15-5.02-6.46-7.47-9.19-2.56-2.86-5.74-5.51-9.56-7.94l.49-1.53,3.78-11.76-7.78-2.5-9.94-3.19-12.54-4.03-3.78,11.76-.49,1.53c-2.44.42-6.27.82-10.02,1.65-3.59.8-6.39,2.17-9.69,3.68l-.77-1.11-6.85-7.68-7.65,7.04-7.69,7.02-7.71,7.02,7.02,7.74,1.09,1.19c-1.86,3.2-3.38,6.61-4.53,10.19-1.15,3.58-1.9,7.24-2.25,10.92l-1.57.34-10.2,2.2,2.2,10.2,2.2,10.2,2.2,10.2,10.2-2.2,1.6-.34c1.8,3.15,2.64,5.69,5.09,8.43,2.56,2.86,5.44,5.41,7.18,7.18l-.49,1.53-2.96,9.2,12.54,4.03,9.94,3.19,7.78,2.5,2.96-9.2.49-1.53c4.52.25,8.65-.05,12.4-.89,3.59-.8,7.58-1.78,10.89-3.3l1.37,1.3,7.15,7.78,7.8-6.99,7.77-7,7.75-7-7-7.73-1.07-1.19Zm-53.76,2.15c-15.53-4.99-24.1-21.68-19.11-37.2,4.99-15.53,21.68-24.1,37.2-19.11,15.53,4.99,24.1,21.68,19.11,37.2-4.99,15.53-21.68,24.1-37.2,19.11Z"/>
  <path class="cls-3" d="m153.21,308.45c0-9.34-6.24-17.84-15.18-20.68l-3.2-1.02-.16-3.35c-.74-15.28-13.31-27.25-28.62-27.25-13.66,0-25.48,9.72-28.11,23.11l-.65,3.3-3.32.53c-11.35,1.83-19.92,11.87-19.92,23.36,0,13.05,10.62,23.67,23.67,23.67h53.79c11.96,0,21.68-9.73,21.68-21.68Z"/>
  <path class="cls-5" d="m61.7,229.45c0-4.43-3.28-8.46-7.99-9.81l-1.68-.48-.08-1.59c-.39-7.25-7-12.93-15.06-12.93-7.19,0-13.41,4.61-14.8,10.96l-.34,1.56-1.75.25c-5.98.87-10.48,5.63-10.48,11.08,0,6.19,5.59,11.23,12.46,11.23h28.32c6.29,0,11.41-4.61,11.41-10.29Z"/>
  <path class="cls-5" d="m160.1,191.7c0-2.32-1.72-4.43-4.18-5.13l-.88-.25-.04-.83c-.2-3.79-3.67-6.76-7.88-6.76-3.76,0-7.02,2.41-7.74,5.74l-.18.82-.91.13c-3.13.45-5.49,2.95-5.49,5.8,0,3.24,2.92,5.88,6.52,5.88h14.82c3.29,0,5.97-2.41,5.97-5.38Z"/>
  <path class="cls-16" d="m328.42,305.98c2.05,0,4.04.31,5.97.95,1.93.63,3.65,1.6,5.15,2.9,1.5,1.3,2.7,2.96,3.59,4.98.9,2.02,1.35,4.43,1.35,7.23,0,.39-.02.91-.06,1.56-.04.65-.13,1.33-.27,2.06-.14.73-.36,1.47-.65,2.23-.29.76-.69,1.44-1.2,2.06-.5.62-1.14,1.11-1.89,1.49-.76.38-1.67.57-2.73.57-.79,0-1.44-.1-1.98-.29-.53-.2-.97-.45-1.3-.76-.34-.31-.59-.64-.76-1.01-.17-.36-.28-.7-.34-1.01-.95.9-2.05,1.56-3.28,2-1.23.43-2.51.65-3.83.65-2.16,0-3.78-.55-4.88-1.64-1.09-1.09-1.64-2.56-1.64-4.41,0-1.21.22-2.22.67-3.05.45-.83,1.04-1.49,1.77-2,.73-.5,1.56-.87,2.5-1.09.94-.22,1.9-.34,2.88-.34,1.07,0,1.95.09,2.65.27.7.18,1.25.37,1.64.57,0-.56-.07-1.08-.21-1.56-.14-.48-.38-.88-.71-1.22-.34-.34-.79-.6-1.37-.78-.57-.18-1.3-.27-2.17-.27-1.18,0-2.22.16-3.13.46-.91.31-1.65.73-2.21,1.26l-1.35-4.08c1.06-.73,2.23-1.25,3.49-1.58,1.26-.32,2.59-.48,3.99-.48,2.02,0,3.59.29,4.71.88,1.12.59,1.95,1.33,2.48,2.23.53.9.85,1.86.95,2.9.1,1.04.15,2.02.15,2.94v2.82c0,.62.01,1.23.04,1.85.03.62.11,1.18.25,1.68.14.51.34.91.61,1.22.27.31.65.46,1.16.46.67,0,1.2-.27,1.58-.8.38-.53.67-1.17.88-1.91.21-.74.34-1.49.4-2.25.06-.76.08-1.36.08-1.81,0-1.88-.31-3.61-.92-5.19-.62-1.58-1.5-2.95-2.65-4.1-1.15-1.15-2.54-2.05-4.16-2.69-1.63-.64-3.46-.97-5.51-.97s-3.83.32-5.44.97c-1.61.65-2.97,1.54-4.08,2.67-1.11,1.14-1.96,2.48-2.54,4.04-.59,1.56-.88,3.26-.88,5.11s.27,3.43.82,4.98c.55,1.55,1.35,2.91,2.4,4.08,1.05,1.16,2.33,2.08,3.85,2.75s3.25,1.01,5.21,1.01c.73,0,1.39-.05,1.98-.15.59-.1,1.14-.22,1.66-.36.52-.14,1.02-.31,1.49-.5.48-.2.98-.39,1.51-.59l.84,2.86c-1.21.56-2.46.98-3.76,1.26-1.3.28-2.59.42-3.85.42-2.1,0-4.08-.37-5.93-1.11-1.85-.74-3.47-1.8-4.86-3.17-1.39-1.37-2.48-3.03-3.28-4.98s-1.2-4.14-1.2-6.58c0-2.58.45-4.84,1.35-6.79.9-1.95,2.09-3.58,3.59-4.9,1.5-1.32,3.23-2.3,5.19-2.96,1.96-.66,4.02-.99,6.18-.99Zm1.68,21.15c.36-.2.73-.46,1.09-.8.36-.34.55-.74.55-1.22v-1.72c-.42-.17-1.02-.34-1.79-.53-.77-.18-1.56-.27-2.37-.27-1.18,0-2.03.24-2.54.72-.52.48-.78,1.21-.78,2.19,0,1.57.83,2.35,2.48,2.35.39,0,.91-.04,1.56-.13.64-.08,1.25-.28,1.81-.59Z"/>
  <polygon class="cls-10" points="538.31 500.57 532.44 505.46 533.14 513.06 526.68 508.99 519.66 512 521.54 504.6 516.51 498.86 524.12 498.36 528.03 491.8 530.86 498.89 538.31 500.57"/>
  <polygon class="cls-10" points="443.45 11.66 442.54 19.24 448.27 24.29 440.78 25.76 437.75 32.77 434.03 26.1 426.42 25.38 431.62 19.79 429.95 12.34 436.88 15.55 443.45 11.66"/>
  <polygon class="cls-10" points="70.95 476.6 76.73 481.59 84.12 479.66 81.16 486.7 85.28 493.13 77.67 492.49 72.83 498.39 71.09 490.96 63.98 488.17 70.51 484.22 70.95 476.6"/>
  <polygon class="cls-10" points="12.08 321.28 14.63 328.47 22.01 330.45 15.96 335.1 16.36 342.73 10.07 338.41 2.94 341.15 5.1 333.83 .29 327.9 7.92 327.69 12.08 321.28"/>
  <polygon class="cls-10" points="53.98 100.04 60.05 104.67 67.31 102.29 64.78 109.5 69.29 115.66 61.65 115.49 57.18 121.68 54.99 114.36 47.72 112.02 54 107.68 53.98 100.04"/>
  <polygon class="cls-10" points="47.02 140.54 51.52 141.45 54.81 138.25 55.35 142.81 59.41 144.96 55.23 146.87 54.44 151.4 51.33 148.02 46.79 148.67 49.04 144.67 47.02 140.54"/>
</svg>