<?xml version="1.0" encoding="UTF-8"?>
<svg id="Layer_2" data-name="Layer 2" xmlns="http://www.w3.org/2000/svg" viewBox="0 0 409.95 213.86">
  <defs>
    <style>
      .cls-1 {
        fill: #bbd4db;
      }

      .cls-2 {
        fill: #dbe8ec;
      }

      .cls-3 {
        fill: #3f9cb5;
      }

      .cls-4 {
        fill: #f9ae28;
      }
    </style>
  </defs>
  <g id="Layer_1-2" data-name="Layer 1">
    <g>
      <path class="cls-2" d="m352.76,180.48v-9.86c0-3.68,2.99-6.67,6.67-6.67l10.66-.03c3.68,0,6.67-2.99,6.67-6.67v-13.37c0-3.68-2.99-6.67-6.67-6.67l-16.68.03c-3.68,0-6.67-2.99-6.67-6.67v-11.91c0-3.68,2.99-6.67,6.67-6.67h40.17c3.68,0,6.67-2.99,6.67-6.67v-13.37c0-3.68-2.99-6.67-6.67-6.67l-48.99.07c-3.68,0-6.67-2.99-6.67-6.67v-9.86c0-3.68,2.99-6.67,6.67-6.67l31.63-.07c3.68,0,6.67-2.99,6.67-6.67v-13.37c0-3.68-2.99-6.67-6.67-6.67H27.48c-3.68,0-6.67,2.99-6.67,6.67v13.37c0,3.68,2.99,6.67,6.67,6.67h9.05c3.68,0,6.67,2.99,6.67,6.67v9.86c0,3.68-2.99,6.67-6.67,6.67H6.67c-3.68-.01-6.67,2.97-6.67,6.65v13.37c0,3.68,2.99,6.67,6.67,6.67h29.87c3.68.01,6.67,3,6.67,6.68v11.91c0,3.68-2.99,6.67-6.67,6.67h-12.24c-3.68,0-6.67,2.99-6.67,6.67v13.37c0,3.68,2.99,6.67,6.67,6.67h6.21c3.68,0,6.67,2.99,6.67,6.67v9.86c0,3.68-2.99,6.67-6.67,6.67H10c-3.68,0-6.67,2.99-6.67,6.67v13.37c0,3.68,2.99,6.67,6.67,6.67h393.28c3.68,0,6.67-2.99,6.67-6.67v-13.37c0-3.68-2.99-6.67-6.67-6.67h-43.85c-3.68,0-6.67-2.99-6.67-6.67Z"/>
      <path class="cls-4" d="m337.01,56.15c7.35,0,13.57-5.72,13.86-13.06,0-.23.01-.46.01-.7,0-9.51-7.6-17.24-17.06-17.46-1.6-14.02-13.51-24.92-27.96-24.92-11.8,0-21.9,7.26-26.08,17.56-.05,0-.1,0-.15,0-7.08,0-12.89,5.44-13.48,12.36-7.43,1.3-13.08,7.79-13.08,15.59,0,.04,0,.08,0,.12.04,5.85,4.92,10.51,10.77,10.51h73.17Z"/>
      <path class="cls-4" d="m82.3,104.1c5.29,0,9.76-4.12,9.97-9.4,0-.17,0-.33,0-.5,0-6.84-5.47-12.41-12.27-12.56-1.15-10.09-9.72-17.93-20.12-17.93-8.49,0-15.75,5.23-18.76,12.63-.04,0-.07,0-.1,0-5.09,0-9.28,3.91-9.7,8.9-5.34.94-9.41,5.6-9.41,11.22,0,.03,0,.06,0,.09.03,4.21,3.54,7.56,7.75,7.56h52.64Z"/>
      <circle class="cls-1" cx="194.72" cy="65.59" r="9.45"/>
      <circle class="cls-1" cx="173.18" cy="56.15" r="7.57"/>
      <circle class="cls-1" cx="168.63" cy="73.76" r="4.55"/>
      <circle class="cls-1" cx="51.12" cy="201.25" r="7"/>
      <circle class="cls-1" cx="33.01" cy="184.32" r="11.1"/>
      <circle class="cls-1" cx="67.05" cy="192.61" r="5.61"/>
      <circle class="cls-1" cx="80.59" cy="202.7" r="3.37"/>
      <g>
        <path class="cls-3" d="m126.34,159.59v-10.99h-29.67c-3.74,0-6.55-.85-8.42-2.54-1.87-1.69-2.81-4-2.81-6.92,0-.75.14-1.51.41-2.28.28-.77.69-1.58,1.24-2.42.55-.85,1.12-1.66,1.71-2.45.59-.79,1.32-1.75,2.19-2.9l31.33-41.9c2.05-2.76,3.73-4.76,5.05-6,1.32-1.24,2.91-1.86,4.76-1.86,5.99,0,8.98,3.43,8.98,10.28v45.75h2.54c3.03,0,5.47.41,7.3,1.24,1.83.83,2.75,2.64,2.75,5.44,0,2.29-.75,3.95-2.25,5-1.5,1.04-3.74,1.57-6.74,1.57h-3.61v10.99c0,3.03-.67,5.29-2.01,6.77-1.34,1.48-3.13,2.22-5.38,2.22s-3.99-.76-5.35-2.28-2.04-3.75-2.04-6.71Zm-25.42-24.23h25.42v-34.34l-25.42,34.34Z"/>
        <path class="cls-3" d="m222.09,124.6c0,6.46-.39,12.02-1.18,16.67-.79,4.65-2.25,8.87-4.37,12.65-2.68,4.65-6.15,8.24-10.4,10.76-4.26,2.52-8.98,3.78-14.18,3.78-5.99,0-11.36-1.69-16.11-5.08-4.75-3.39-8.32-8.08-10.73-14.07-1.22-3.27-2.12-6.89-2.69-10.85-.57-3.96-.86-8.25-.86-12.86,0-5.95.31-11.31.95-16.08.63-4.77,1.62-8.87,2.96-12.29,2.33-5.67,5.7-10,10.14-12.97,4.43-2.97,9.72-4.46,15.87-4.46,4.06,0,7.74.66,11.05,1.98,3.31,1.32,6.22,3.25,8.72,5.79s4.62,5.68,6.35,9.43c2.99,6.5,4.49,15.7,4.49,27.6Zm-16.19-1.18c0-7.21-.43-13.11-1.3-17.7-.87-4.59-2.33-8.06-4.37-10.4-2.05-2.34-4.89-3.52-8.51-3.52-5.2,0-8.82,2.62-10.85,7.86-2.03,5.24-3.04,13.32-3.04,24.23,0,7.41.43,13.48,1.3,18.2.87,4.73,2.32,8.3,4.37,10.73,2.05,2.42,4.83,3.63,8.33,3.63s6.46-1.26,8.51-3.78c2.05-2.52,3.49-6.13,4.31-10.82.83-4.69,1.24-10.84,1.24-18.44Z"/>
        <path class="cls-3" d="m270.21,159.59v-10.99h-29.67c-3.74,0-6.55-.85-8.42-2.54-1.87-1.69-2.81-4-2.81-6.92,0-.75.14-1.51.41-2.28.28-.77.69-1.58,1.24-2.42.55-.85,1.12-1.66,1.71-2.45.59-.79,1.32-1.75,2.19-2.9l31.33-41.9c2.05-2.76,3.73-4.76,5.05-6s2.91-1.86,4.76-1.86c5.99,0,8.98,3.43,8.98,10.28v45.75h2.54c3.03,0,5.47.41,7.3,1.24,1.83.83,2.75,2.64,2.75,5.44,0,2.29-.75,3.95-2.25,5-1.5,1.04-3.74,1.57-6.74,1.57h-3.61v10.99c0,3.03-.67,5.29-2.01,6.77-1.34,1.48-3.13,2.22-5.38,2.22s-3.99-.76-5.35-2.28-2.04-3.75-2.04-6.71Zm-25.42-24.23h25.42v-34.34l-25.42,34.34Z"/>
      </g>
      <path class="cls-4" d="m338.94,195.42c6.32,0,11.68-4.92,11.92-11.24,0-.2.01-.4.01-.6,0-8.19-6.54-14.84-14.68-15.03-1.38-12.07-11.62-21.45-24.07-21.45-10.16,0-18.85,6.25-22.45,15.11-.04,0-.08,0-.12,0-6.09,0-11.1,4.68-11.6,10.64-6.39,1.12-11.25,6.7-11.25,13.42,0,.04,0,.07,0,.11.04,5.03,4.23,9.05,9.27,9.05h62.97Z"/>
    </g>
  </g>
</svg>